Robbie Williams - You Know Me.mkv

Video
ID                               : 1
Format                           : AVC
Format/Info                      : Advanced Video Codec
Format profile                   : Main@L3.0
Format settings, CABAC           : Yes
Format settings, ReFrames        : 5 frames
Muxing mode                      : Container profile=Unknown@3.0
Codec ID                         : V_MPEG4/ISO/AVC
Duration                         : 4mn 21s
Bit rate                         : 2 741 Kbps
Nominal bit rate                 : 2 800 Kbps
Width                            : 704 pixels
Height                           : 288 pixels
Display aspect ratio             : 2.35:1
Original display aspect ratio    : 2.35:1
Frame rate                       : 25.000 fps
Resolution                       : 24 bits
Colorimetry                      : 4:2:0
Scan type                        : Progressive
Bits/(Pixel*Frame)               : 0.541
Stream size                      : 85.5 MiB (90%)
Writing library                  : x264 core 65 r1074M b6bb3d4

Audio
ID                               : 2
Format                           : MPEG Audio
Format version                   : Version 1
Format profile                   : Layer 3
Codec ID                         : A_MPEG/L3
Codec ID/Hint                    : MP3
Duration                         : 4mn 21s
Bit rate mode                    : Variable
Bit rate                         : 244 Kbps
Minimum bit rate                 : 32.0 Kbps
Channel(s)                       : 2 channels
Sampling rate                    : 44.1 KHz
Resolution                       : 16 bits
Stream size                      : 7.62 MiB (8%)
Writing library                  : LAME3.98r


SCREENSHOTS:  http://bayimg.com/MaJOJaaCc